<?xml version="1.0" standalone="no"?>
<!DOCTYPE svg PUBLIC "-//W3C//DTD SVG 20010904//EN"
 "http://www.w3.org/TR/2001/REC-SVG-20010904/DTD/svg10.dtd">
<svg version="1.0" xmlns="http://www.w3.org/2000/svg"
 width="512.000000pt" height="512.000000pt" viewBox="0 0 512.000000 512.000000"
 preserveAspectRatio="xMidYMid meet">

<g transform="translate(0.000000,512.000000) scale(0.100000,-0.100000)"
fill="#000000" stroke="none">
<path d="M1033 5105 c-170 -37 -321 -177 -369 -342 l-15 -53 -109 0 c-142 0
-200 -20 -264 -92 -65 -71 -76 -117 -76 -307 l-1 -156 -51 -30 c-29 -16 -67
-49 -85 -73 -58 -76 -65 -121 -61 -389 3 -224 4 -241 26 -288 31 -68 76 -112
147 -146 149 -72 327 -6 397 146 22 47 23 64 26 288 4 268 -3 313 -61 389 -18
24 -56 57 -85 73 l-51 30 -1 153 c0 149 1 153 25 177 22 23 32 25 120 25 l95
0 0 -1677 c0 -1839 -3 -1749 60 -1874 37 -72 126 -166 188 -198 l42 -21 0
-183 c0 -101 5 -210 11 -242 19 -106 75 -190 163 -249 191 -127 446 -56 548
152 l33 66 3 203 3 203 870 0 869 0 0 -164 c0 -245 20 -316 115 -411 154 -154
398 -149 545 12 84 92 94 131 98 388 l3 220 56 35 c107 67 181 171 214 299 18
72 19 133 19 1758 l0 1683 95 0 c88 0 98 -2 120 -25 24 -24 25 -28 25 -177
l-1 -153 -51 -30 c-29 -16 -67 -49 -85 -73 -58 -76 -65 -121 -61 -389 3 -224
4 -241 26 -288 70 -152 248 -218 397 -146 71 34 116 78 147 146 22 47 23 64
26 288 4 268 -3 313 -61 389 -18 24 -56 57 -85 73 l-51 30 -1 156 c0 190 -11
236 -76 307 -64 72 -122 92 -264 92 l-109 0 -15 53 c-49 169 -198 305 -375
343 -91 19 -1083 20 -1121 1 -14 -7 -33 -29 -43 -50 l-19 -37 -113 0 -112 0
-6 30 c-7 32 -56 70 -92 70 -36 0 -85 -38 -92 -70 l-5 -30 -118 0 -117 0 -6
30 c-4 19 -18 37 -39 50 -32 19 -50 20 -568 19 -410 0 -550 -4 -597 -14z
m2087 -685 l0 -100 -560 0 -560 0 0 100 0 100 560 0 560 0 0 -100z m-850 -303
c0 -1 -322 -324 -715 -717 l-715 -715 0 718 0 717 715 0 c393 0 715 -1 715 -3z
m827 -166 c-163 -164 -167 -169 -167 -210 0 -58 41 -101 96 -101 36 0 50 11
279 240 l241 240 292 -2 292 -3 -735 -735 -735 -735 0 738 0 737 302 0 302 0
-167 -169z m-637 -866 l0 -935 -452 0 -453 0 236 238 c130 130 244 248 253
262 43 66 -4 150 -85 150 -43 0 -43 0 -369 -325 -282 -281 -330 -325 -355
-325 -26 0 -55 24 -185 155 l-155 155 780 780 c429 429 781 780 782 780 2 0 3
-421 3 -935z m-2103 859 c36 -23 44 -80 41 -284 -3 -173 -5 -191 -24 -217 -44
-59 -123 -51 -156 17 -15 30 -18 63 -17 220 0 214 7 247 59 272 36 18 58 16
97 -8z m3741 -1611 l-183 -183 -627 0 -628 0 0 102 0 103 808 808 807 807 3
-727 2 -728 -182 -182z m779 1611 c36 -23 44 -80 41 -284 -3 -173 -5 -191 -24
-217 -44 -59 -123 -51 -156 17 -15 30 -18 63 -17 220 0 214 7 247 59 272 36
18 58 16 97 -8z m-3428 -2438 c56 -29 66 -99 22 -148 -75 -85 -205 3 -156 105
25 54 79 71 134 43z m1531 -86 l0 -100 -420 0 -420 0 0 100 0 100 420 0 420 0
0 -100z m784 89 c33 -15 59 -71 51 -108 -10 -45 -49 -76 -97 -76 -33 0 -45 6
-69 33 -73 82 15 196 115 151z m-2274 -976 c0 -87 -5 -175 -10 -195 -37 -133
-204 -176 -297 -76 -37 40 -43 73 -43 254 l0 174 175 0 175 0 0 -157z m2500 0
c0 -87 -5 -175 -10 -195 -22 -78 -90 -130 -170 -130 -50 0 -81 12 -118 46 -48
43 -52 64 -52 256 l0 180 175 0 175 0 0 -157z"/>
</g>
</svg>
